<svg xmlns="http://www.w3.org/2000/svg"><symbol id="icon-carte" viewBox="0 0 15 20"><path d="M6.73 19.596C1.053 11.368 0 10.524 0 7.5a7.5 7.5 0 1115 0c0 3.024-1.053 3.868-6.73 12.096a.938.938 0 01-1.54 0zm.77-8.971a3.125 3.125 0 100-6.25 3.125 3.125 0 000 6.25z"/></symbol><symbol id="icon-close" viewBox="0 0 24 24"><path d="M12 22A9.99 9.99 0 012 12v-.2a10.005 10.005 0 0117.074-6.874A10 10 0 0112 22zm0-8.59L14.59 16 16 14.59 13.41 12 16 9.41 14.59 8 12 10.59 9.41 8 8 9.41 10.59 12 8 14.59 9.41 16 12 13.411v-.001z"/></symbol><symbol id="icon-courriel" viewBox="0 0 21 16"><path d="M20.602 5.283c.16-.129.398-.008.398.196V14c0 1.104-.882 2-1.969 2H1.97C.882 16 0 15.104 0 14V5.483c0-.208.234-.325.398-.196.919.726 2.137 1.646 6.32 4.734.866.641 2.326 1.991 3.782 1.983 1.464.013 2.953-1.367 3.786-1.983 4.183-3.088 5.397-4.013 6.316-4.738zM10.5 10.667c.952.016 2.322-1.217 3.01-1.725 5.443-4.013 5.858-4.363 7.113-5.363.237-.187.377-.479.377-.787V2c0-1.104-.882-2-1.969-2H1.97C.882 0 0 .896 0 2v.792c0 .308.14.596.377.787 1.255.996 1.67 1.35 7.112 5.363.69.508 2.06 1.741 3.011 1.725z"/></symbol><symbol id="icon-facebook-f" viewBox="0 0 12 21"><path d="M10.648 11.75l.547-3.594H7.72V5.812c0-1.015.468-1.953 2.031-1.953h1.602V.773S9.906.5 8.539.5C5.688.5 3.813 2.258 3.813 5.383v2.773H.608v3.594h3.204v8.75h3.906v-8.75h2.93z"/></symbol><symbol id="icon-fleche" viewBox="0 0 23 14"><path d="M10.606.371L.37 10.638a1.27 1.27 0 000 1.793l1.194 1.198a1.261 1.261 0 001.786.002l8.15-8.137 8.15 8.137a1.261 1.261 0 001.786-.002l1.194-1.198a1.27 1.27 0 000-1.793L12.394.371a1.261 1.261 0 00-1.788 0z"/></symbol><symbol id="icon-instagram" viewBox="0 0 18 19"><path d="M9 5.008A4.493 4.493 0 004.508 9.5C4.508 12 6.5 13.992 9 13.992A4.493 4.493 0 0013.492 9.5c0-2.46-2.031-4.492-4.492-4.492zm0 7.422A2.926 2.926 0 016.07 9.5c0-1.602 1.29-2.89 2.93-2.89a2.882 2.882 0 012.89 2.89c0 1.64-1.288 2.93-2.89 2.93zm5.703-7.578a1.05 1.05 0 00-1.055-1.055 1.05 1.05 0 00-1.054 1.055 1.05 1.05 0 001.054 1.054 1.05 1.05 0 001.055-1.054zm2.969 1.054c-.078-1.406-.39-2.656-1.406-3.672C15.25 1.22 14 .906 12.594.828 11.148.75 6.813.75 5.367.828c-1.406.078-2.617.39-3.672 1.406C.68 3.25.367 4.5.29 5.906c-.078 1.446-.078 5.782 0 7.227.078 1.406.39 2.617 1.406 3.672 1.055 1.015 2.266 1.328 3.672 1.406 1.446.078 5.781.078 7.227 0 1.406-.078 2.656-.39 3.672-1.406 1.015-1.055 1.328-2.266 1.406-3.672.078-1.445.078-5.781 0-7.227zm-1.875 8.75c-.274.781-.899 1.367-1.64 1.68-1.173.469-3.907.352-5.157.352-1.29 0-4.023.117-5.156-.352a2.962 2.962 0 01-1.68-1.68c-.469-1.133-.352-3.867-.352-5.156 0-1.25-.117-3.984.352-5.156a3.013 3.013 0 011.68-1.64C4.977 2.233 7.71 2.351 9 2.351c1.25 0 3.984-.118 5.156.351.742.274 1.328.899 1.64 1.64.47 1.173.352 3.907.352 5.157 0 1.29.118 4.023-.351 5.156z"/></symbol><symbol id="icon-pinterest" viewBox="0 0 20 21"><path d="M19.688 10.5A9.686 9.686 0 0010 .812 9.686 9.686 0 00.312 10.5c0 4.14 2.54 7.617 6.133 9.023-.078-.742-.156-1.914.04-2.773.195-.742 1.132-4.805 1.132-4.805s-.273-.586-.273-1.445c0-1.328.781-2.344 1.758-2.344.82 0 1.21.625 1.21 1.367 0 .82-.546 2.07-.82 3.243-.195.937.508 1.718 1.445 1.718 1.72 0 3.047-1.796 3.047-4.414 0-2.343-1.68-3.945-4.023-3.945-2.774 0-4.375 2.07-4.375 4.18 0 .86.312 1.758.703 2.226.078.078.078.196.078.274-.078.312-.273.976-.273 1.093-.04.196-.157.235-.352.157-1.21-.586-1.953-2.344-1.953-3.79 0-3.046 2.227-5.859 6.406-5.859 3.36 0 5.977 2.422 5.977 5.625 0 3.32-2.11 6.016-5.04 6.016-.976 0-1.913-.508-2.226-1.133 0 0-.469 1.875-.586 2.305-.234.86-.82 1.914-1.21 2.539.898.312 1.874.43 2.89.43a9.686 9.686 0 009.688-9.688z"/></symbol></svg>