<svg width="20" height="21" viewBox="0 0 20 21" fill="none" xmlns="http://www.w3.org/2000/svg">
<path d="M19.6875 10.5C19.6875 5.14844 15.3516 0.8125 10 0.8125C4.64844 0.8125 0.3125 5.14844 0.3125 10.5C0.3125 14.6406 2.85156 18.1172 6.44531 19.5234C6.36719 18.7812 6.28906 17.6094 6.48438 16.75C6.67969 16.0078 7.61719 11.9453 7.61719 11.9453C7.61719 11.9453 7.34375 11.3594 7.34375 10.5C7.34375 9.17188 8.125 8.15625 9.10156 8.15625C9.92188 8.15625 10.3125 8.78125 10.3125 9.52344C10.3125 10.3438 9.76562 11.5938 9.49219 12.7656C9.29688 13.7031 10 14.4844 10.9375 14.4844C12.6562 14.4844 13.9844 12.6875 13.9844 10.0703C13.9844 7.72656 12.3047 6.125 9.96094 6.125C7.1875 6.125 5.58594 8.19531 5.58594 10.3047C5.58594 11.1641 5.89844 12.0625 6.28906 12.5312C6.36719 12.6094 6.36719 12.7266 6.36719 12.8047C6.28906 13.1172 6.09375 13.7812 6.09375 13.8984C6.05469 14.0938 5.9375 14.1328 5.74219 14.0547C4.53125 13.4688 3.78906 11.7109 3.78906 10.2656C3.78906 7.21875 6.01562 4.40625 10.1953 4.40625C13.5547 4.40625 16.1719 6.82812 16.1719 10.0312C16.1719 13.3516 14.0625 16.0469 11.1328 16.0469C10.1562 16.0469 9.21875 15.5391 8.90625 14.9141C8.90625 14.9141 8.4375 16.7891 8.32031 17.2188C8.08594 18.0781 7.5 19.1328 7.10938 19.7578C8.00781 20.0703 8.98438 20.1875 10 20.1875C15.3516 20.1875 19.6875 15.8516 19.6875 10.5Z" fill="#001011"/>
</svg>
